<svg xmlns="http://www.w3.org/2000/svg" xmlns:xlink="http://www.w3.org/1999/xlink" width="500" zoomAndPan="magnify" viewBox="0 0 375 374.999991" height="500" preserveAspectRatio="xMidYMid meet" version="1.0"><defs><clipPath id="6aecff6bba"><path d="M 33.714844 44 L 219 44 L 219 375 L 33.714844 375 Z M 33.714844 44 " clip-rule="nonzero"/></clipPath><clipPath id="d5574e1be4"><path d="M 121.378906 0 L 370.753906 0 L 370.753906 47.964844 L 121.378906 47.964844 Z M 121.378906 0 " clip-rule="nonzero"/></clipPath><clipPath id="36ac7f4119"><path d="M 154.566406 0 L 370.617188 0 L 337.433594 47.964844 L 121.378906 47.964844 Z M 154.566406 0 " clip-rule="nonzero"/></clipPath><clipPath id="e7c92faeab"><path d="M 4.382812 0 L 121.480469 0 L 121.480469 47.964844 L 4.382812 47.964844 Z M 4.382812 0 " clip-rule="nonzero"/></clipPath><clipPath id="99b81fc35f"><path d="M 37.566406 0 L 121.378906 0 L 88.195312 47.964844 L 4.382812 47.964844 Z M 37.566406 0 " clip-rule="nonzero"/></clipPath></defs><g clip-path="url(#6aecff6bba)"><path fill="#2563eb" d="M 218.386719 44.019531 L 124.425781 44.019531 L 33.71875 165.675781 L 85.109375 150.140625 C 39.679688 230.578125 57.257812 322.214844 105.136719 374.695312 C 105.136719 374.695312 40.839844 243.511719 193.894531 122.507812 L 141.078125 131.921875 L 218.386719 44.019531 " fill-opacity="1" fill-rule="nonzero"/></g><g clip-path="url(#d5574e1be4)"><g clip-path="url(#36ac7f4119)"><path fill="#2563eb" d="M 121.378906 0 L 370.566406 0 L 370.566406 47.964844 L 121.378906 47.964844 Z M 121.378906 0 " fill-opacity="1" fill-rule="nonzero"/></g></g><g clip-path="url(#e7c92faeab)"><g clip-path="url(#99b81fc35f)"><path fill="#2563eb" d="M 4.382812 0 L 121.292969 0 L 121.292969 47.964844 L 4.382812 47.964844 Z M 4.382812 0 " fill-opacity="1" fill-rule="nonzero"/></g></g></svg>